ply
format ascii 1.0
comment Point Cloud Data Format in OpenHolo Library v1.0
element color 1
property int channel
element vertex 9
property float x
property float y
property float z
property uchar red
property uchar green
property uchar blue
property double phase
end_header
3
-0.300001 -0.300001 0.536573 100 100 100 1.000000
-0.050001 -0.050001 0.836573 100 100 100 1.000000
-0.030001 -0.030001 0.636573 100 100 100 1.000000
-0.010001 -0.010001 0.436573 100 100 100 1.000000
0.000001 0.000001 0.236573 100 100 100 1.000000
0.020001 0.020001 0.036573 100 100 100 1.000000
0.040001 0.040001 -0.236573 100 100 100 1.000000
0.060001 0.060001 -0.436573 100 100 100 1.000000
0.10001 0.10001 -0.636573 100 100 100 1.000000
